<svg viewBox="0 0 12 14" fill="none" xmlns="http://www.w3.org/2000/svg">
    <path d="M4.80006 12.8333V3.98288L2.04841 6.65806C1.57977 7.11368 0.820126 7.11368 0.351483 6.65806C-0.117161 6.20244 -0.117161 5.46391 0.351483 5.00829L5.15163 0.34153L5.24304 0.261776C5.71438 -0.111973 6.40921 -0.0856135 6.84856 0.34153L11.6487 5.00829L11.7307 5.09716C12.1152 5.5554 12.0881 6.23092 11.6487 6.65806C11.2094 7.0852 10.5145 7.11156 10.0432 6.73781L9.95178 6.65806L7.20013 3.98288V12.8333C7.20013 13.4777 6.66286 14 6.0001 14C5.33733 14 4.80006 13.4777 4.80006 12.8333Z" fill="currentColor"/>
</svg>
