<svg viewBox="0 0 8 6" fill="none" xmlns="http://www.w3.org/2000/svg">
<path d="M7.42969 0.5C7.43976 0.5 7.45214 0.503684 7.46582 0.515625L7.4707 0.520508C7.48777 0.538451 7.5 0.566369 7.5 0.600586C7.49997 0.617729 7.49648 0.633058 7.49121 0.646484L7.4707 0.679688L2.89941 5.47949C2.88363 5.49599 2.86887 5.49997 2.85742 5.5C2.85172 5.5 2.84499 5.4991 2.83789 5.49609L2.81445 5.47949L0.529297 3.08008C0.512208 3.06214 0.5 3.03424 0.5 3C0.5 2.98285 0.503546 2.96754 0.508789 2.9541L0.529297 2.91992C0.545173 2.90329 0.560778 2.89941 0.572266 2.89941C0.577982 2.89946 0.58472 2.90025 0.591797 2.90332L0.614258 2.91992L2.49609 4.89453L2.8584 5.27441L3.21973 4.89453L7.3877 0.520508C7.40344 0.504018 7.41824 0.500064 7.42969 0.5Z" fill="currentColor" stroke="currentColor"/>
</svg>
