<svg viewBox="0 0 89 21" fill="none" xmlns="http://www.w3.org/2000/svg">
    <path d="M82.0508 19.2815C77.9232 19.2815 75.3495 16.8777 75.0581 13.3328L77.7532 13.1629C78.0688 15.5666 79.5256 16.902 82.0993 16.902C84.3088 16.902 85.62 16.0522 85.62 14.4254C85.62 12.9686 84.8673 12.0703 81.0553 11.1476C76.9277 10.1521 75.4223 8.96242 75.4223 6.26733C75.4223 3.30515 77.6804 1.26562 81.3952 1.26562C85.3286 1.26562 87.5866 3.6208 87.9751 6.87433L85.28 7.02001C85.0372 5.02904 83.7018 3.64507 81.3467 3.64507C79.3557 3.64507 78.1174 4.66484 78.1174 6.1702C78.1174 7.67557 78.9672 8.23401 82.3179 9.03526C86.7854 10.0793 88.315 11.7546 88.315 14.2798C88.315 17.3633 85.7656 19.2815 82.0508 19.2815Z" fill="currentColor"/>
    <path d="M65.3135 18.9173C61.1859 18.9173 58.6122 16.4164 58.6122 12.4345V1.26562H61.2344V12.4345C61.2344 15.0567 62.7155 16.5135 65.3135 16.5135C67.9115 16.5135 69.3925 15.0567 69.3925 12.4345V1.26562H72.0148V12.4345C72.0148 16.4164 69.4168 18.9173 65.3135 18.9173Z" fill="currentColor"/>
    <path d="M17.6648 19.2643V2.02539H28.8822V4.42912H20.287V9.4551H28.5908V11.786H20.287V16.8605H29.0764V19.2643H17.6648Z" fill="currentColor"/>
    <path d="M0 19.2643V2.02539H3.32637L11.2902 16.0836V2.02539H13.9125V19.2643H10.4647L2.62225 5.52173V19.2643H0Z" fill="currentColor"/>
    <path d="M51.0249 0.506836C52.701 0.506883 54.0599 1.86569 54.0599 3.54185C54.0599 5.21801 52.701 6.57681 51.0249 6.57686C50.7529 6.57686 50.4895 6.54021 50.2387 6.47313L52.0978 4.61477C52.6904 4.02216 52.6904 3.06154 52.0978 2.46892C51.5052 1.87632 50.5446 1.87635 49.952 2.46892L48.0929 4.32728C48.0259 4.07672 47.9899 3.81351 47.9899 3.54185C47.9899 1.86566 49.3487 0.506836 51.0249 0.506836Z" fill="currentColor"/>
    <path d="M37.179 20.2344C35.5028 20.2343 34.144 18.8755 34.144 17.1994C34.144 15.5232 35.5028 14.1644 37.179 14.1643C37.4509 14.1643 37.7144 14.201 37.9651 14.2681L36.1061 16.1264C35.5135 16.719 35.5135 17.6797 36.1061 18.2723C36.6987 18.8649 37.6593 18.8649 38.2519 18.2723L40.111 16.4139C40.1779 16.6645 40.214 16.9277 40.214 17.1994C40.214 18.8756 38.8552 20.2344 37.179 20.2344Z" fill="currentColor"/>
    <path d="M37.179 0.506836C35.5028 0.506883 34.144 1.86569 34.144 3.54185C34.144 5.21801 35.5028 6.57681 37.179 6.57686C37.4509 6.57686 37.7144 6.54021 37.9651 6.47313L36.1061 4.61477C35.5135 4.02216 35.5135 3.06154 36.1061 2.46892C36.6987 1.87632 37.6593 1.87635 38.2519 2.46892L40.111 4.32728C40.1779 4.07672 40.214 3.81351 40.214 3.54185C40.214 1.86566 38.8552 0.506836 37.179 0.506836Z" fill="currentColor"/>
    <path d="M51.0249 20.2344C52.701 20.2343 54.0599 18.8755 54.0599 17.1994C54.0599 15.5232 52.701 14.1644 51.0249 14.1643C50.7529 14.1643 50.4895 14.201 50.2387 14.2681L52.0978 16.1264C52.6904 16.719 52.6904 17.6797 52.0978 18.2723C51.5052 18.8649 50.5446 18.8649 49.952 18.2723L48.0929 16.4139C48.0259 16.6645 47.9899 16.9277 47.9899 17.1994C47.9899 18.8756 49.3487 20.2344 51.0249 20.2344Z" fill="currentColor"/>
    <path d="M50.4882 3.00544C50.7845 2.70913 51.2648 2.70913 51.5611 3.00544C51.8574 3.30175 51.8574 3.78207 51.5611 4.07836L45.2688 10.3707L51.5611 16.663L51.613 16.7201C51.8563 17.0181 51.839 17.458 51.5611 17.7359C51.2832 18.0138 50.8433 18.0311 50.5453 17.7878L50.4882 17.7359L44.1959 11.4436L37.9036 17.7359L37.8465 17.7878C37.5485 18.0311 37.1085 18.0138 36.8306 17.7359C36.5528 17.458 36.5355 17.0181 36.7788 16.7201L36.8306 16.663L43.123 10.3707L36.8306 4.07836C36.5343 3.78205 36.5343 3.30175 36.8306 3.00544C37.127 2.70913 37.6073 2.70913 37.9036 3.00544L44.1959 9.29776L50.4882 3.00544Z" fill="currentColor"/>
</svg>
