<svg viewBox="0 0 153 31" fill="none" xmlns="http://www.w3.org/2000/svg">
    <path d="M8.832 24.384C7.296 24.384 5.944 24.032 4.776 23.328C3.608 22.608 2.696 21.584 2.04 20.256C1.384 18.928 1.056 17.344 1.056 15.504C1.056 13.68 1.376 12.104 2.016 10.776C2.672 9.432 3.584 8.4 4.752 7.68C5.92 6.944 7.288 6.576 8.856 6.576C10.968 6.576 12.608 7.104 13.776 8.16C14.944 9.216 15.704 10.68 16.056 12.552L13.344 12.696C13.12 11.528 12.64 10.616 11.904 9.96C11.168 9.288 10.152 8.952 8.856 8.952C7.816 8.952 6.912 9.216 6.144 9.744C5.392 10.272 4.8 11.024 4.368 12C3.952 12.976 3.744 14.144 3.744 15.504C3.744 16.864 3.952 18.032 4.368 19.008C4.8 19.984 5.4 20.728 6.168 21.24C6.936 21.752 7.824 22.008 8.832 22.008C10.208 22.008 11.272 21.648 12.024 20.928C12.792 20.192 13.272 19.184 13.464 17.904L16.176 18.048C15.968 19.344 15.552 20.464 14.928 21.408C14.304 22.352 13.48 23.088 12.456 23.616C11.432 24.128 10.224 24.384 8.832 24.384ZM19.1031 24V6.96H22.6551L27.7191 20.952L32.7831 6.96H36.3351V24H33.7431V11.52L29.1591 23.976H26.2791L21.6951 11.52V24H19.1031ZM40.0328 24V6.96H45.5048C48.1768 6.96 50.2328 7.704 51.6728 9.192C53.1128 10.664 53.8328 12.768 53.8328 15.504C53.8328 18.224 53.1208 20.32 51.6968 21.792C50.2888 23.264 48.2728 24 45.6488 24H40.0328ZM42.6248 21.624H45.5048C47.3928 21.624 48.8008 21.12 49.7288 20.112C50.6728 19.088 51.1448 17.552 51.1448 15.504C51.1448 13.424 50.6728 11.88 49.7288 10.872C48.8008 9.848 47.3928 9.336 45.5048 9.336H42.6248V21.624Z" fill="currentColor"/>
    <path d="M146.051 24.2815C141.923 24.2815 139.349 21.8777 139.058 18.3328L141.753 18.1629C142.069 20.5666 143.526 21.902 146.099 21.902C148.309 21.902 149.62 21.0522 149.62 19.4254C149.62 17.9686 148.867 17.0703 145.055 16.1476C140.928 15.1521 139.422 13.9624 139.422 11.2673C139.422 8.30515 141.68 6.26562 145.395 6.26562C149.329 6.26562 151.587 8.6208 151.975 11.8743L149.28 12.02C149.037 10.029 147.702 8.64507 145.347 8.64507C143.356 8.64507 142.117 9.66484 142.117 11.1702C142.117 12.6756 142.967 13.234 146.318 14.0353C150.785 15.0793 152.315 16.7546 152.315 19.2798C152.315 22.3633 149.766 24.2815 146.051 24.2815Z" fill="currentColor"/>
    <path d="M129.313 23.9173C125.186 23.9173 122.612 21.4164 122.612 17.4345V6.26562H125.234V17.4345C125.234 20.0567 126.716 21.5135 129.313 21.5135C131.911 21.5135 133.393 20.0567 133.393 17.4345V6.26562H136.015V17.4345C136.015 21.4164 133.417 23.9173 129.313 23.9173Z" fill="currentColor"/>
    <path d="M81.6648 24.2643V7.02539H92.8822V9.42912H84.287V14.4551H92.5908V16.786H84.287V21.8605H93.0764V24.2643H81.6648Z" fill="currentColor"/>
    <path d="M64 24.2643V7.02539H67.3264L75.2902 21.0836V7.02539H77.9125V24.2643H74.4647L66.6223 10.5217V24.2643H64Z" fill="currentColor"/>
    <path d="M115.025 5.50684C116.701 5.50688 118.06 6.86569 118.06 8.54185C118.06 10.218 116.701 11.5768 115.025 11.5769C114.753 11.5769 114.489 11.5402 114.239 11.4731L116.098 9.61477C116.69 9.02216 116.69 8.06154 116.098 7.46892C115.505 6.87632 114.545 6.87635 113.952 7.46892L112.093 9.32728C112.026 9.07672 111.99 8.81351 111.99 8.54185C111.99 6.86566 113.349 5.50684 115.025 5.50684Z" fill="currentColor"/>
    <path d="M101.179 25.2344C99.5028 25.2343 98.144 23.8755 98.144 22.1994C98.144 20.5232 99.5028 19.1644 101.179 19.1643C101.451 19.1643 101.714 19.201 101.965 19.2681L100.106 21.1264C99.5135 21.719 99.5135 22.6797 100.106 23.2723C100.699 23.8649 101.659 23.8649 102.252 23.2723L104.111 21.4139C104.178 21.6645 104.214 21.9277 104.214 22.1994C104.214 23.8756 102.855 25.2344 101.179 25.2344Z" fill="currentColor"/>
    <path d="M101.179 5.50684C99.5028 5.50688 98.144 6.86569 98.144 8.54185C98.144 10.218 99.5028 11.5768 101.179 11.5769C101.451 11.5769 101.714 11.5402 101.965 11.4731L100.106 9.61477C99.5135 9.02216 99.5135 8.06154 100.106 7.46892C100.699 6.87632 101.659 6.87635 102.252 7.46892L104.111 9.32728C104.178 9.07672 104.214 8.81351 104.214 8.54185C104.214 6.86566 102.855 5.50684 101.179 5.50684Z" fill="currentColor"/>
    <path d="M115.025 25.2344C116.701 25.2343 118.06 23.8755 118.06 22.1994C118.06 20.5232 116.701 19.1644 115.025 19.1643C114.753 19.1643 114.489 19.201 114.239 19.2681L116.098 21.1264C116.69 21.719 116.69 22.6797 116.098 23.2723C115.505 23.8649 114.545 23.8649 113.952 23.2723L112.093 21.4139C112.026 21.6645 111.99 21.9277 111.99 22.1994C111.99 23.8756 113.349 25.2344 115.025 25.2344Z" fill="currentColor"/>
    <path d="M114.488 8.00544C114.785 7.70913 115.265 7.70913 115.561 8.00544C115.857 8.30175 115.857 8.78207 115.561 9.07836L109.269 15.3707L115.561 21.663L115.613 21.7201C115.856 22.0181 115.839 22.458 115.561 22.7359C115.283 23.0138 114.843 23.0311 114.545 22.7878L114.488 22.7359L108.196 16.4436L101.904 22.7359L101.847 22.7878C101.549 23.0311 101.109 23.0138 100.831 22.7359C100.553 22.458 100.535 22.0181 100.779 21.7201L100.831 21.663L107.123 15.3707L100.831 9.07836C100.534 8.78205 100.534 8.30175 100.831 8.00544C101.127 7.70913 101.607 7.70913 101.904 8.00544L108.196 14.2978L114.488 8.00544Z" fill="currentColor"/>
</svg>
