<svg viewBox="0 0 21 21" fill="none" xmlns="http://www.w3.org/2000/svg">
    <path d="M17.0249 0.506836C18.701 0.506883 20.0599 1.86569 20.0599 3.54185C20.0599 5.21801 18.701 6.57681 17.0249 6.57686C16.7529 6.57686 16.4895 6.54021 16.2387 6.47313L18.0978 4.61477C18.6904 4.02216 18.6904 3.06154 18.0978 2.46892C17.5052 1.87632 16.5446 1.87635 15.952 2.46892L14.0929 4.32728C14.0259 4.07672 13.9899 3.81351 13.9899 3.54185C13.9899 1.86566 15.3487 0.506836 17.0249 0.506836Z" fill="currentColor"/>
    <path d="M3.17898 20.2344C1.50283 20.2343 0.143964 18.8755 0.143964 17.1994C0.143964 15.5232 1.50283 14.1644 3.17898 14.1643C3.45092 14.1643 3.71436 14.201 3.96515 14.2681L2.10605 16.1264C1.51349 16.719 1.51349 17.6797 2.10605 18.2723C2.69866 18.8649 3.65927 18.8649 4.2519 18.2723L6.11099 16.4139C6.17795 16.6645 6.21399 16.9277 6.21399 17.1994C6.21399 18.8756 4.85517 20.2344 3.17898 20.2344Z" fill="currentColor"/>
    <path d="M3.17898 0.506836C1.50283 0.506883 0.143964 1.86569 0.143964 3.54185C0.143964 5.21801 1.50283 6.57681 3.17898 6.57686C3.45092 6.57686 3.71436 6.54021 3.96515 6.47313L2.10605 4.61477C1.51349 4.02216 1.51349 3.06154 2.10605 2.46892C2.69866 1.87632 3.65927 1.87635 4.2519 2.46892L6.11099 4.32728C6.17795 4.07672 6.21399 3.81351 6.21399 3.54185C6.21399 1.86566 4.85517 0.506836 3.17898 0.506836Z" fill="currentColor"/>
    <path d="M17.0249 20.2344C18.701 20.2343 20.0599 18.8755 20.0599 17.1994C20.0599 15.5232 18.701 14.1644 17.0249 14.1643C16.7529 14.1643 16.4895 14.201 16.2387 14.2681L18.0978 16.1264C18.6904 16.719 18.6904 17.6797 18.0978 18.2723C17.5052 18.8649 16.5446 18.8649 15.952 18.2723L14.0929 16.4139C14.0259 16.6645 13.9899 16.9277 13.9899 17.1994C13.9899 18.8756 15.3487 20.2344 17.0249 20.2344Z" fill="currentColor"/>
    <path d="M16.4882 3.00544C16.7845 2.70913 17.2648 2.70913 17.5611 3.00544C17.8574 3.30175 17.8574 3.78207 17.5611 4.07836L11.2688 10.3707L17.5611 16.663L17.613 16.7201C17.8563 17.0181 17.839 17.458 17.5611 17.7359C17.2832 18.0138 16.8433 18.0311 16.5453 17.7878L16.4882 17.7359L10.1959 11.4436L3.90357 17.7359L3.84651 17.7878C3.54851 18.0311 3.10853 18.0138 2.83064 17.7359C2.55276 17.458 2.53546 17.0181 2.77878 16.7201L2.83064 16.663L9.12296 10.3707L2.83064 4.07836C2.53433 3.78205 2.53434 3.30175 2.83064 3.00544C3.12696 2.70913 3.60726 2.70913 3.90357 3.00544L10.1959 9.29776L16.4882 3.00544Z" fill="currentColor"/>
</svg>