<svg viewBox="0 0 28 28" fill="none" xmlns="http://www.w3.org/2000/svg">
<path d="M14 4.66602L5.83337 8.16602L14 11.666L22.1667 8.16602L14 4.66602Z" stroke="currentColor" stroke-linejoin="round"/>
<path d="M22.3633 13.54C22.547 13.6188 22.6658 13.8002 22.666 14C22.666 14.2 22.5471 14.3812 22.3633 14.46L14.1963 17.96C14.1021 18.0002 13.9983 18.0104 13.8994 17.9902L13.8027 17.96L5.63574 14.46C5.45221 14.381 5.33301 14.1998 5.33301 14C5.33318 13.8002 5.45217 13.6188 5.63574 13.54L9.46484 11.8984L10.7344 12.4424L7.10254 14L13.999 16.9551L20.8955 14L17.2637 12.4434L18.5332 11.8984L22.3633 13.54Z" fill="currentColor"/>
<path d="M22.3633 19.374C22.5471 19.4528 22.666 19.634 22.666 19.834C22.6659 20.0339 22.5471 20.2152 22.3633 20.2939L14.1963 23.7939C14.1021 23.8341 13.9982 23.8444 13.8994 23.8242L13.8027 23.7939L5.63574 20.2939C5.45215 20.2151 5.3331 20.0338 5.33301 19.834C5.33301 19.6341 5.45217 19.4529 5.63574 19.374L9.46582 17.7324L10.7354 18.2764L7.10254 19.834L13.999 22.7891L20.8955 19.834L17.2627 18.2764L18.5322 17.7324L22.3633 19.374Z" fill="currentColor"/>
</svg>
